<?xml version="1.0" standalone="no"?>
<!DOCTYPE svg PUBLIC "-//W3C//DTD SVG 20010904//EN"
 "http://www.w3.org/TR/2001/REC-SVG-20010904/DTD/svg10.dtd">
<svg version="1.0" xmlns="http://www.w3.org/2000/svg"
 width="307.000000pt" height="238.000000pt" viewBox="0 0 307.000000 238.000000"
 preserveAspectRatio="xMidYMid meet">

<g transform="translate(0.000000,238.000000) scale(0.100000,-0.100000)"
fill="#000000" stroke="none">
<path d="M1065 2271 c-41 -11 -87 -35 -107 -58 -24 -26 -48 -87 -48 -121 0
-42 29 -120 65 -177 34 -53 139 -160 199 -203 20 -14 36 -28 36 -32 0 -4 -19
-15 -42 -24 -59 -22 -149 -95 -202 -163 l-45 -56 -110 -1 c-70 -1 -114 -5
-122 -13 -23 -23 2 -68 82 -144 l79 -77 0 -58 c0 -76 31 -205 70 -290 16 -37
30 -68 30 -70 0 -2 -25 -4 -55 -4 -42 0 -55 -4 -55 -15 0 -20 27 -33 112 -54
39 -9 73 -22 75 -28 5 -13 -49 -33 -88 -33 -43 0 -37 -27 9 -39 20 -6 62 -11
92 -11 50 0 61 -4 115 -45 33 -25 77 -53 97 -63 21 -9 38 -22 38 -27 0 -6 -27
-27 -60 -48 -34 -21 -58 -42 -55 -47 12 -19 87 -10 165 21 129 49 174 23 68
-40 -32 -18 -55 -38 -52 -43 14 -23 119 -2 224 44 76 33 124 48 172 52 229 21
409 166 488 393 21 60 32 77 70 105 71 53 94 104 98 220 l4 97 -68 3 c-64 3
-69 5 -86 34 l-18 31 48 31 c63 41 152 135 152 162 0 12 -10 25 -25 32 -25 11
-31 7 -113 -75 -48 -48 -91 -87 -96 -87 -4 0 -19 9 -33 20 -25 20 -63 26 -76
13 -4 -3 0 -17 8 -29 20 -31 5 -37 -45 -20 -40 14 -42 13 -52 -10 -6 -13 -9
-26 -6 -29 3 -3 36 -11 74 -18 51 -9 70 -17 72 -30 3 -16 -19 -17 -338 -17
-270 0 -340 3 -334 13 50 83 159 195 240 246 l47 31 -39 16 c-21 9 -67 21
-101 27 -72 13 -84 8 -167 -62 -109 -92 -194 -220 -236 -356 -26 -82 -39 -333
-22 -425 6 -30 9 -57 7 -58 -2 -2 -26 18 -53 45 -46 44 -51 53 -57 108 -12 94
1 310 24 398 33 125 76 202 163 291 43 43 78 81 78 83 0 8 -104 -9 -136 -22
-109 -45 -228 -254 -250 -440 -4 -30 -10 -55 -14 -55 -13 0 -20 114 -10 174
15 93 61 180 134 251 143 140 328 175 576 110 103 -27 284 -110 315 -145 20
-22 20 -22 -9 -47 -23 -19 -36 -23 -62 -19 -38 8 -50 -5 -33 -35 26 -50 157 5
205 88 47 78 78 249 51 271 -25 21 -65 -1 -71 -40 -3 -18 -10 -60 -16 -92 -5
-33 -10 -61 -10 -63 0 -10 -26 0 -54 22 -41 31 -213 113 -255 121 -45 9 -47
25 -12 74 77 107 94 247 42 356 -47 100 -129 153 -218 139 -35 -5 -55 -16 -89
-51 -25 -24 -46 -44 -48 -44 -3 0 -24 19 -48 42 -75 72 -199 111 -283 89z
m165 -77 c99 -54 151 -143 168 -286 5 -40 6 -98 3 -128 l-6 -55 -55 -12 c-106
-22 -102 -24 -219 95 -124 125 -165 193 -166 278 -1 130 136 184 275 108z
m357 -5 c66 -25 121 -106 130 -194 8 -72 -17 -145 -74 -223 -44 -59 -48 -62
-87 -61 -75 1 -76 1 -79 124 -3 88 -9 126 -31 188 l-28 78 28 36 c24 32 72 62
101 63 6 0 24 -5 40 -11z m109 -1106 c73 -53 134 -101 134 -105 0 -29 -44 -8
-174 82 -80 56 -148 105 -151 111 -4 5 8 9 25 9 23 0 64 -24 166 -97z m496 0
c88 -62 134 -101 131 -110 -3 -7 -10 -13 -15 -13 -9 0 -288 189 -312 211 -6 5
4 9 25 9 29 0 61 -19 171 -97z m-248 -85 c9 -20 20 -39 26 -43 5 -3 10 -20 10
-37 0 -60 59 -95 112 -67 19 10 20 9 14 -17 -22 -89 -110 -201 -193 -246 -82
-44 -157 -61 -278 -62 -60 -1 -122 2 -136 6 -30 9 -57 62 -84 168 -27 105 -23
390 6 390 5 0 9 -13 9 -28 0 -16 11 -51 25 -78 14 -27 25 -61 25 -76 0 -38 45
-71 85 -64 16 4 58 6 93 6 79 -1 137 25 190 85 45 51 61 99 63 181 l2 59 8
-70 c4 -39 15 -87 23 -107z m-301 17 c64 -44 116 -83 117 -88 1 -23 -106 -36
-154 -17 -16 6 -27 6 -31 0 -4 -6 -15 -10 -27 -10 -16 0 -19 5 -16 25 3 15 -1
30 -10 37 -24 20 -52 90 -52 131 l0 39 29 -19 c15 -10 81 -54 144 -98z m472
17 c157 -110 155 -109 121 -122 -35 -13 -112 -13 -136 0 -13 7 -21 7 -25 0 -3
-5 -15 -10 -27 -10 -16 0 -19 5 -16 25 3 15 -1 30 -10 37 -24 20 -52 90 -52
131 0 28 3 36 13 31 6 -5 66 -46 132 -92z"/>
<path d="M1773 814 c-16 -43 48 -94 120 -94 42 0 101 38 105 68 4 25 -15 30
-24 7 -3 -8 -21 -19 -40 -24 -44 -12 -87 2 -109 35 -18 27 -43 32 -52 8z"/>
</g>
</svg>
